<svg width="11" height="11" viewBox="0 0 11 11" fill="none" xmlns="http://www.w3.org/2000/svg">
<path d="M8.11667 5.72533H0.666667C0.477778 5.72533 0.319444 5.66144 0.191667 5.53367C0.0638889 5.40589 0 5.24756 0 5.05867C0 4.86978 0.0638889 4.71144 0.191667 4.58367C0.319444 4.45589 0.477778 4.392 0.666667 4.392H8.11667L4.85 1.12533C4.71667 0.992 4.65278 0.836445 4.65833 0.658667C4.66389 0.480889 4.73333 0.325333 4.86667 0.192C5 0.0697778 5.15556 0.00588889 5.33333 0.000333333C5.51111 -0.00522222 5.66667 0.0586667 5.8 0.192L10.2 4.592C10.2667 4.65867 10.3139 4.73089 10.3417 4.80867C10.3694 4.88644 10.3833 4.96978 10.3833 5.05867C10.3833 5.14756 10.3694 5.23089 10.3417 5.30867C10.3139 5.38644 10.2667 5.45867 10.2 5.52533L5.8 9.92533C5.67778 10.0476 5.525 10.1087 5.34167 10.1087C5.15833 10.1087 5 10.0476 4.86667 9.92533C4.73333 9.792 4.66667 9.63367 4.66667 9.45033C4.66667 9.267 4.73333 9.10867 4.86667 8.97533L8.11667 5.72533Z" fill="#4C5052"/>
</svg>
