<svg width="11" height="11" viewBox="0 0 11 11" fill="none" xmlns="http://www.w3.org/2000/svg">
<path d="M2.26666 5.72533H9.71666C9.90555 5.72533 10.0639 5.66144 10.1917 5.53367C10.3194 5.40589 10.3833 5.24756 10.3833 5.05867C10.3833 4.86978 10.3194 4.71144 10.1917 4.58367C10.0639 4.45589 9.90555 4.392 9.71666 4.392H2.26666L5.53333 1.12533C5.66666 0.992 5.73055 0.836445 5.725 0.658667C5.71944 0.480889 5.65 0.325333 5.51666 0.192C5.38333 0.0697778 5.22778 0.00588889 5.05 0.000333333C4.87222 -0.00522222 4.71666 0.0586667 4.58333 0.192L0.183331 4.592C0.116664 4.65867 0.0694419 4.73089 0.0416641 4.80867C0.0138863 4.88644 -1.90735e-06 4.96978 -1.90735e-06 5.05867C-1.90735e-06 5.14756 0.0138863 5.23089 0.0416641 5.30867C0.0694419 5.38644 0.116664 5.45867 0.183331 5.52533L4.58333 9.92533C4.70555 10.0476 4.85833 10.1087 5.04166 10.1087C5.225 10.1087 5.38333 10.0476 5.51666 9.92533C5.65 9.792 5.71666 9.63367 5.71666 9.45033C5.71666 9.267 5.65 9.10867 5.51666 8.97533L2.26666 5.72533Z" fill="#4C5052"/>
</svg>
