<svg width="54" height="55" viewBox="0 0 54 55" fill="none" xmlns="http://www.w3.org/2000/svg">
<path d="M41.3437 0H12.6563C5.6664 0 0 5.68124 0 12.6894V41.4521C0 48.4602 5.6664 54.1415 12.6563 54.1415H41.3437C48.3336 54.1415 54 48.4602 54 41.4521V12.6894C54 5.68124 48.3336 0 41.3437 0Z" fill="#F4F2ED"/>
<path d="M12.8697 12.9714C12.8697 9.07997 16.0197 5.92172 19.901 5.92172H26.9322V20.0211H19.901C16.0197 20.0211 12.8697 16.8628 12.8697 12.9714Z" fill="#F24E1E"/>
<path d="M19.9013 48.2197C23.7826 48.2197 26.9325 45.0616 26.9325 41.1701V34.1203H19.9013C16.02 34.1203 12.87 37.2787 12.87 41.1701C12.87 45.0616 16.02 48.2197 19.9013 48.2197Z" fill="#0ACF83"/>
<path d="M12.87 27.0707C12.87 23.1793 16.0197 20.0211 19.901 20.0211H26.9322L26.9325 34.1203H19.9013C16.02 34.1203 12.87 30.9621 12.87 27.0707Z" fill="#A259FF"/>
<path d="M26.9322 5.92172H33.9637C37.845 5.92172 40.9951 9.07997 40.9951 12.9714C40.9951 16.8628 37.845 20.0211 33.9637 20.0211H26.9322V5.92172Z" fill="#FF7262"/>
<path d="M40.9951 27.0707C40.9951 30.9621 37.845 34.1203 33.9637 34.1203C30.0825 34.1203 26.9325 30.9621 26.9325 27.0707C26.9325 23.1793 30.0825 20.0211 33.9637 20.0211C37.845 20.0211 40.9951 23.1793 40.9951 27.0707Z" fill="#1ABCFE"/>
</svg>
