<svg width="57" height="57" viewBox="0 0 57 57" fill="none" xmlns="http://www.w3.org/2000/svg">
<path d="M43.5266 0H13.3245C5.96557 0 0 5.9812 0 13.3594V43.6406C0 51.0188 5.96557 57 13.3245 57H43.5266C50.8855 57 56.8511 51.0188 56.8511 43.6406V13.3594C56.8511 5.9812 50.8855 0 43.5266 0Z" fill="#F4F2ED"/>
<path d="M13.5492 13.6562C13.5492 9.55937 16.8655 6.23438 20.9517 6.23438H28.3542V21.0781H20.9517C16.8655 21.0781 13.5492 17.7531 13.5492 13.6562Z" fill="#F24E1E"/>
<path d="M20.952 50.7656C25.0383 50.7656 28.3545 47.4407 28.3545 43.3438V35.9218H20.952C16.8659 35.9218 13.5495 39.2469 13.5495 43.3438C13.5495 47.4407 16.8659 50.7656 20.952 50.7656Z" fill="#0ACF83"/>
<path d="M13.5495 28.5C13.5495 24.4031 16.8655 21.0781 20.9517 21.0781H28.3542L28.3545 35.9218H20.952C16.8659 35.9218 13.5495 32.5968 13.5495 28.5Z" fill="#A259FF"/>
<path d="M28.3542 6.23438H35.7569C39.8431 6.23438 43.1595 9.55937 43.1595 13.6562C43.1595 17.7531 39.8431 21.0781 35.7569 21.0781H28.3542V6.23438Z" fill="#FF7262"/>
<path d="M43.1595 28.5C43.1595 32.5968 39.8431 35.9217 35.7569 35.9217C31.6707 35.9217 28.3545 32.5968 28.3545 28.5C28.3545 24.4031 31.6707 21.0781 35.7569 21.0781C39.8431 21.0781 43.1595 24.4031 43.1595 28.5Z" fill="#1ABCFE"/>
</svg>
