<svg width="12" height="12" viewBox="0 0 12 12" fill="none" xmlns="http://www.w3.org/2000/svg">
<path d="M6 5.09961C6.24847 5.09961 6.4501 5.31101 6.4502 5.57129V7.92871C6.45015 8.18903 6.2485 8.40039 6 8.40039C5.7517 8.40015 5.55083 8.18888 5.55078 7.92871V5.57129C5.55088 5.31116 5.75173 5.09985 6 5.09961Z" fill="#BEBEBE"/>
<path d="M6.00293 3.59961C6.2501 3.59979 6.4502 3.80064 6.4502 4.04785V4.05176C6.4502 4.29897 6.2501 4.49982 6.00293 4.5H5.99805C5.75081 4.4999 5.55078 4.29902 5.55078 4.05176V4.04785C5.55078 3.80059 5.75081 3.59971 5.99805 3.59961H6.00293Z" fill="#BEBEBE"/>
<path fill-rule="evenodd" clip-rule="evenodd" d="M6 1.125C8.69231 1.125 10.8749 3.30772 10.875 6C10.875 8.69239 8.69239 10.875 6 10.875C3.30772 10.8749 1.125 8.69231 1.125 6C1.12513 3.30781 3.30781 1.12513 6 1.125ZM6 1.9502C3.76344 1.95033 1.95033 3.76344 1.9502 6C1.9502 8.23667 3.76336 10.0497 6 10.0498C8.23675 10.0498 10.0498 8.23675 10.0498 6C10.0497 3.76336 8.23667 1.9502 6 1.9502Z" fill="#BEBEBE"/>
</svg>
