<svg width="16" height="16" viewBox="0 0 16 16" fill="none" xmlns="http://www.w3.org/2000/svg">
<circle cx="8" cy="8" r="5.95" stroke="#BEBEBE" stroke-width="1.1"/>
<path d="M8.00331 4.7998C8.33307 4.7998 8.60039 5.06713 8.60039 5.39689V5.40272C8.60039 5.73248 8.33307 5.9998 8.00331 5.9998H7.99748C7.66771 5.9998 7.40039 5.73248 7.40039 5.40272V5.39689C7.40039 5.06713 7.66771 4.7998 7.99748 4.7998H8.00331Z" fill="#BEBEBE"/>
<path d="M7.40039 10.5712L7.40039 7.42838C7.40039 7.08123 7.66902 6.7998 8.00039 6.7998C8.33176 6.7998 8.60039 7.08123 8.60039 7.42838L8.60039 10.5712C8.60039 10.9184 8.33176 11.1998 8.00039 11.1998C7.66902 11.1998 7.40039 10.9184 7.40039 10.5712Z" fill="#BEBEBE"/>
</svg>
