<svg width="13" height="10" viewBox="0 0 13 10" fill="none" xmlns="http://www.w3.org/2000/svg">
<path d="M1.48718 3.55989C1.69208 3.35499 2.02445 3.35501 2.22937 3.55989L3.56335 4.89338C3.76827 5.0983 3.76827 5.43114 3.56335 5.63606C3.35843 5.84084 3.02604 5.84044 2.82117 5.63557L2.33044 5.14485C2.39291 5.75101 2.60426 6.33667 2.95007 6.84797C3.44163 7.57466 4.17424 8.10476 5.01843 8.34358C5.86257 8.5823 6.76405 8.51462 7.56335 8.15315L7.72839 8.07356C7.89052 7.9904 8.04572 7.89587 8.19275 7.79084L8.36804 7.65754C8.53895 7.51946 8.6978 7.3665 8.84167 7.20051C9.03145 6.98161 9.36293 6.95759 9.58191 7.14729C9.80077 7.33704 9.82426 7.66806 9.63464 7.88704C9.41926 8.13557 9.1785 8.36163 8.91638 8.56086L8.8031 8.64485C8.61453 8.77956 8.4153 8.90051 8.2074 9.00715L7.99597 9.1092C6.97121 9.57269 5.81555 9.65932 4.73328 9.35334C3.6509 9.04716 2.7107 8.36805 2.08044 7.43635C1.63559 6.77863 1.36543 6.02455 1.2865 5.24446L0.895873 5.63606C0.691023 5.84085 0.3586 5.84075 0.153686 5.63606C-0.0512286 5.43114 -0.0512286 5.0983 0.153686 4.89338L1.48718 3.55989Z" fill="#A7A7A7"/>
<path d="M4.06189 0.423657C5.08674 -0.0398968 6.24271 -0.12604 7.32507 0.180005C8.40746 0.486193 9.34716 1.16528 9.97742 2.097C10.4217 2.75386 10.691 3.50658 10.7704 4.28547L11.1595 3.89729C11.3645 3.69241 11.6968 3.69239 11.9017 3.89729C12.1065 4.1022 12.1066 4.4346 11.9017 4.63948L10.5677 5.97346C10.3629 6.17816 10.0304 6.1782 9.82556 5.97346L8.49158 4.63948C8.28683 4.43461 8.28688 4.10218 8.49158 3.89729C8.69646 3.69247 9.02886 3.6925 9.23376 3.89729L9.72693 4.39094C9.66485 3.78374 9.45417 3.197 9.10779 2.68489C8.6162 1.95821 7.88365 1.42807 7.03943 1.18928C6.19533 0.950632 5.29376 1.01824 4.49451 1.37971L4.32996 1.4593C4.16794 1.54241 4.01254 1.63707 3.8656 1.74202L3.68298 1.88118C3.50555 2.02525 3.34128 2.18556 3.19324 2.35969C3.00548 2.58016 2.67416 2.60687 2.45349 2.41926C2.24688 2.2433 2.21054 1.94134 2.36121 1.72248L2.39392 1.68C2.6155 1.41938 2.86476 1.18293 3.13708 0.975415L3.25476 0.888012C3.44337 0.753272 3.643 0.631882 3.85095 0.525219L4.06189 0.423657Z" fill="#A7A7A7"/>
</svg>
