<svg width="87" height="53" viewBox="0 0 87 53" fill="none" xmlns="http://www.w3.org/2000/svg">
<path d="M0 50H87V52C87 52.5523 86.5523 53 86 53H1C0.447718 53 0 52.5523 0 52V50Z" fill="#BFBFBF"/>
<path d="M0 52H87C87 52.5523 86.5523 53 86 53H1C0.447718 53 0 52.5523 0 52Z" fill="#8C8C8C"/>
<path d="M37 50H50C50 50.5523 49.5523 51 49 51H38C37.4477 51 37 50.5523 37 50Z" fill="#969696"/>
<path d="M5 2C5 0.895432 5.89543 0 7 0H80C81.1046 0 82 0.895431 82 2V50H5V2Z" fill="#A8A8A8"/>
<path d="M7 3C7 2.44772 7.44772 2 8 2H79C79.5523 2 80 2.44772 80 3V48H7V3Z" fill="#EAEAEA"/>
</svg>
